M48
; DRILL file {KiCad 8.0.5} date 2024-10-25T21:40:45-0500
; FORMAT={-:-/ absolute / inch / decimal}
; #@! TF.CreationDate,2024-10-25T21:40:45-05:00
; #@! TF.GenerationSoftware,Kicad,Pcbnew,8.0.5
; #@! TF.FileFunction,Plated,1,2,PTH
FMAT,2
INCH
; #@! TA.AperFunction,Plated,PTH,ComponentDrill
T1C0.0315
; #@! TA.AperFunction,Plated,PTH,ComponentDrill
T2C0.0350
; #@! TA.AperFunction,Plated,PTH,ComponentDrill
T3C0.0433
; #@! TA.AperFunction,Plated,PTH,ComponentDrill
T4C0.0472
; #@! TA.AperFunction,Plated,PTH,ComponentDrill
T5C0.0551
; #@! TA.AperFunction,Plated,PTH,ComponentDrill
T6C0.0630
; #@! TA.AperFunction,Plated,PTH,ComponentDrill
T7C0.0791
; #@! TA.AperFunction,Plated,PTH,ViaDrill
T8C0.1339
%
G90
G05
T1
X2.2329Y-2.8165
X2.2329Y-3.1315
X2.2329Y-3.4268
X2.3313Y-2.8165
X2.3313Y-3.1315
X2.3313Y-3.4268
X3.653Y-3.4661
X3.6561Y-3.9764
X3.75Y-3.1102
X3.8484Y-3.1102
X4.0157Y-3.6713
X4.0157Y-3.7697
X4.053Y-3.4661
X4.0561Y-3.9764
X4.2913Y-2.9465
X4.2913Y-3.3465
X4.5472Y-2.9496
X4.5472Y-3.3496
X4.8228Y-3.6516
X4.8228Y-3.75
X5.1378Y-3.6614
X5.1378Y-3.7598
T2
X4.9016Y-4.2717
X5.0016Y-4.2717
T3
X3.3421Y-3.2677
X3.3421Y-3.3677
X3.3421Y-3.4677
X3.3443Y-3.778
X3.3443Y-3.878
X3.3443Y-3.978
T4
X2.6575Y-2.7362
X2.6856Y-3.2496
X2.6856Y-3.4071
X2.8825Y-3.2496
X2.8825Y-3.4071
X3.8575Y-2.7362
T5
X2.2747Y-3.9173
X2.2747Y-4.1142
X3.878Y-2.0166
X4.0748Y-2.0166
X5.1662Y-3.0906
X5.1662Y-3.2874
T6
X2.2441Y-2.0079
X2.5787Y-2.0079
X3.0709Y-2.0079
X3.2677Y-4.4685
X3.3465Y-2.0079
X3.5039Y-4.4685
X4.0157Y-4.4685
X4.2717Y-4.4685
X4.5866Y-2.0079
X4.8228Y-2.0079
X5.4134Y-2.5787
X5.4134Y-2.7559
X5.4724Y-4.2126
X5.4724Y-4.4488
X5.4823Y-3.6909
X5.4823Y-3.8681
T7
X4.7016Y-4.4717
X5.1016Y-4.4717
T8
X1.752Y-1.9685
X1.752Y-5.0
X5.5315Y-1.9882
X5.5906Y-5.0197
M30
