%TF.GenerationSoftware,KiCad,Pcbnew,8.0.5*%
%TF.CreationDate,2024-10-25T21:40:20-05:00*%
%TF.ProjectId,ECE302_Lab8,45434533-3032-45f4-9c61-62382e6b6963,rev?*%
%TF.SameCoordinates,Original*%
%TF.FileFunction,Soldermask,Top*%
%TF.FilePolarity,Negative*%
%FSLAX46Y46*%
G04 Gerber Fmt 4.6, Leading zero omitted, Abs format (unit mm)*
G04 Created by KiCad (PCBNEW 8.0.5) date 2024-10-25 21:40:20*
%MOMM*%
%LPD*%
G01*
G04 APERTURE LIST*
G04 Aperture macros list*
%AMRoundRect*
0 Rectangle with rounded corners*
0 $1 Rounding radius*
0 $2 $3 $4 $5 $6 $7 $8 $9 X,Y pos of 4 corners*
0 Add a 4 corners polygon primitive as box body*
4,1,4,$2,$3,$4,$5,$6,$7,$8,$9,$2,$3,0*
0 Add four circle primitives for the rounded corners*
1,1,$1+$1,$2,$3*
1,1,$1+$1,$4,$5*
1,1,$1+$1,$6,$7*
1,1,$1+$1,$8,$9*
0 Add four rect primitives between the rounded corners*
20,1,$1+$1,$2,$3,$4,$5,0*
20,1,$1+$1,$4,$5,$6,$7,0*
20,1,$1+$1,$6,$7,$8,$9,0*
20,1,$1+$1,$8,$9,$2,$3,0*%
G04 Aperture macros list end*
%ADD10C,2.800000*%
%ADD11O,2.000000X3.600000*%
%ADD12RoundRect,0.250000X-0.750000X-1.550000X0.750000X-1.550000X0.750000X1.550000X-0.750000X1.550000X0*%
%ADD13RoundRect,0.250000X-1.550000X0.750000X-1.550000X-0.750000X1.550000X-0.750000X1.550000X0.750000X0*%
%ADD14O,3.600000X2.000000*%
%ADD15RoundRect,0.150000X-0.725000X-0.150000X0.725000X-0.150000X0.725000X0.150000X-0.725000X0.150000X0*%
%ADD16O,1.600000X1.600000*%
%ADD17C,1.600000*%
%ADD18C,2.400000*%
%ADD19O,2.400000X2.400000*%
%ADD20R,2.000000X1.905000*%
%ADD21O,2.000000X1.905000*%
%ADD22O,1.600000X2.500000*%
%ADD23O,3.500000X7.000000*%
%ADD24R,1.800000X1.800000*%
%ADD25C,1.800000*%
%ADD26RoundRect,0.150000X0.725000X0.150000X-0.725000X0.150000X-0.725000X-0.150000X0.725000X-0.150000X0*%
%ADD27RoundRect,0.250000X1.550000X-0.750000X1.550000X0.750000X-1.550000X0.750000X-1.550000X-0.750000X0*%
%ADD28C,4.000000*%
G04 APERTURE END LIST*
D10*
%TO.C,V_1L_T7*%
X116500000Y-51000000D03*
%TD*%
%TO.C,Vout_T6*%
X85000000Y-51000000D03*
%TD*%
D11*
%TO.C,Vout1*%
X103500000Y-51222500D03*
D12*
X98500000Y-51222500D03*
%TD*%
D10*
%TO.C,Vin_T1*%
X57000000Y-51000000D03*
%TD*%
D13*
%TO.C,Vin1*%
X57777500Y-99500000D03*
D14*
X57777500Y-104500000D03*
%TD*%
D15*
%TO.C,U1*%
X113575000Y-66595000D03*
X113575000Y-67865000D03*
X113575000Y-69135000D03*
X113575000Y-70405000D03*
X108425000Y-70405000D03*
X108425000Y-69135000D03*
X108425000Y-67865000D03*
X108425000Y-66595000D03*
%TD*%
D16*
%TO.C,R5*%
X92785000Y-88040000D03*
D17*
X102945000Y-88040000D03*
%TD*%
D16*
%TO.C,R4*%
X92865000Y-101000000D03*
D17*
X103025000Y-101000000D03*
%TD*%
%TO.C,R3*%
X109000000Y-74840000D03*
D16*
X109000000Y-85000000D03*
%TD*%
D17*
%TO.C,R2*%
X115500000Y-85080000D03*
D16*
X115500000Y-74920000D03*
%TD*%
D18*
%TO.C,R1*%
X67500000Y-69500000D03*
D19*
X97980000Y-69500000D03*
%TD*%
D20*
%TO.C,Q2*%
X84890000Y-88080000D03*
D21*
X84890000Y-85540000D03*
X84890000Y-83000000D03*
%TD*%
D20*
%TO.C,Q1*%
X84945000Y-101040000D03*
D21*
X84945000Y-98500000D03*
X84945000Y-95960000D03*
%TD*%
D10*
%TO.C,PWM_T3*%
X108500000Y-113500000D03*
%TD*%
D22*
%TO.C,PWM1*%
X124500000Y-108500000D03*
D23*
X129580000Y-113580000D03*
D22*
X127040000Y-108500000D03*
D23*
X119420000Y-113580000D03*
%TD*%
D10*
%TO.C,OPAMP_OUT_T8*%
X137500000Y-70000000D03*
%TD*%
%TO.C,LOW_Vds_T5*%
X83000000Y-113500000D03*
%TD*%
%TO.C,LOWDR_T4*%
X139000000Y-107000000D03*
%TD*%
D24*
%TO.C,L1*%
X68215000Y-86540000D03*
D25*
X73215000Y-86540000D03*
X68215000Y-82540000D03*
X73215000Y-82540000D03*
%TD*%
D26*
%TO.C,IC1*%
X108215000Y-96040000D03*
X108215000Y-94770000D03*
X108215000Y-93500000D03*
X108215000Y-92230000D03*
X113365000Y-92230000D03*
X113365000Y-93500000D03*
X113365000Y-94770000D03*
X113365000Y-96040000D03*
%TD*%
D10*
%TO.C,GND_T8*%
X137500000Y-65500000D03*
%TD*%
%TO.C,GND_T7*%
X122500000Y-51000000D03*
%TD*%
%TO.C,GND_T6*%
X78000000Y-51000000D03*
%TD*%
%TO.C,GND_T5*%
X89000000Y-113500000D03*
%TD*%
%TO.C,GND_T4*%
X139000000Y-113000000D03*
%TD*%
%TO.C,GND_T3*%
X102000000Y-113500000D03*
%TD*%
%TO.C,GND_T2*%
X139250000Y-98250000D03*
%TD*%
%TO.C,GND_T1*%
X65500000Y-51000000D03*
%TD*%
D17*
%TO.C,C7*%
X59215000Y-87040000D03*
X56715000Y-87040000D03*
%TD*%
%TO.C,C6*%
X59215000Y-79540000D03*
X56715000Y-79540000D03*
%TD*%
%TO.C,C5*%
X102000000Y-95750000D03*
X102000000Y-93250000D03*
%TD*%
%TO.C,C4*%
X130500000Y-93000000D03*
X130500000Y-95500000D03*
%TD*%
%TO.C,C3*%
X122500000Y-95250000D03*
X122500000Y-92750000D03*
%TD*%
%TO.C,C2*%
X95250000Y-79000000D03*
X97750000Y-79000000D03*
%TD*%
%TO.C,C1*%
X59215000Y-71540000D03*
X56715000Y-71540000D03*
%TD*%
D10*
%TO.C,10V_T2*%
X139250000Y-93750000D03*
%TD*%
D27*
%TO.C,10VD1*%
X131222500Y-83500000D03*
D14*
X131222500Y-78500000D03*
%TD*%
D28*
X142000000Y-127500000D03*
X44500000Y-127000000D03*
X44500000Y-50000000D03*
X140500000Y-50500000D03*
M02*
